<?xml version="1.0" encoding="UTF-8" standalone="no"?><svg xmlns="http://www.w3.org/2000/svg" xmlns:xlink="http://www.w3.org/1999/xlink" contentStyleType="text/css" height="485px" preserveAspectRatio="none" style="width:290px;height:485px;background:#FFFFFF;" version="1.1" viewBox="0 0 290 485" width="290px" zoomAndPan="magnify"><defs/><g><rect fill="#DDDDDD" height="91.4844" id="_legend" rx="7.5" ry="7.5" style="stroke:#000000;stroke-width:1.0;" width="256" x="12" y="12"/><text fill="#000000" font-family="sans-serif" font-size="14" lengthAdjust="spacing" textLength="13" x="17" y="29.9951">1.</text><text fill="#000000" font-family="sans-serif" font-size="14" lengthAdjust="spacing" textLength="200" x="34" y="29.9951">ER図 PlantUML独自記述ルール</text><text fill="#000000" font-family="sans-serif" font-size="14" lengthAdjust="spacing" textLength="246" x="17" y="46.292">リポジトリルートのREADME.md 参照</text><text fill="#000000" font-family="sans-serif" font-size="14" lengthAdjust="spacing" textLength="4" x="17" y="62.5889"> </text><text fill="#000000" font-family="sans-serif" font-size="14" lengthAdjust="spacing" textLength="13" x="17" y="78.8857">2.</text><text fill="#000000" font-family="sans-serif" font-size="14" lengthAdjust="spacing" textLength="65" x="34" y="78.8857">ER図 概要</text><text fill="#000000" font-family="sans-serif" font-size="14" lengthAdjust="spacing" textLength="56" x="17" y="95.1826">自動生成</text><!--class i_user--><g id="elem_i_user"><rect codeLine="4" fill="#FFDAB9" height="137.75" id="i_user" rx="2.5" ry="2.5" style="stroke:#000000;stroke-width:0.5;" width="255" x="17.5" y="126.4844"/><ellipse cx="70.75" cy="146.6172" fill="#FFE0E0" rx="11" ry="11" style="stroke:#181818;stroke-width:1.0;"/><path d="M66.6719,142.3828 L66.6719,140.2266 L74.0625,140.2266 L74.0625,142.3828 L71.5938,142.3828 L71.5938,150.4609 L74.0625,150.4609 L74.0625,152.6172 L66.6719,152.6172 L66.6719,150.4609 L69.1406,150.4609 L69.1406,142.3828 L66.6719,142.3828 Z " fill="#000000"/><text fill="#000000" font-family="sans-serif" font-size="12" font-style="italic" lengthAdjust="spacing" textLength="62" x="89.25" y="142.623">«ユーザー»</text><text fill="#000000" font-family="sans-serif" font-size="14" lengthAdjust="spacing" textLength="42" x="99.25" y="158.4482">i_user</text><rect fill="#FFFFFF" height="15.9688" style="stroke:#000000;stroke-width:1.0;stroke-dasharray:2.0,2.0;" width="80" x="195.5" y="123.4844"/><text fill="#000000" font-family="sans-serif" font-size="12" font-style="italic" lengthAdjust="spacing" textLength="78" x="196.5" y="135.623">user グループ</text><line style="stroke:#000000;stroke-width:0.5;" x1="18.5" x2="271.5" y1="166.75" y2="166.75"/><ellipse cx="28.5" cy="180.3984" fill="none" rx="3" ry="3" style="stroke:#038048;stroke-width:1.0;"/><text fill="#000000" font-family="sans-serif" font-size="14" lengthAdjust="spacing" textLength="193" x="37.5" y="183.7451">string user_id : -- ユーザーID</text><line style="stroke:#000000;stroke-width:1.0;" x1="18.5" x2="271.5" y1="191.0469" y2="191.0469"/><text fill="#000000" font-family="sans-serif" font-size="14" lengthAdjust="spacing" textLength="239" x="23.5" y="208.042">timestamp created_at : -- 生成日時</text><text fill="#000000" font-family="sans-serif" font-size="14" lengthAdjust="spacing" textLength="209" x="23.5" y="224.3389">string email : -- メールアドレス</text><text fill="#000000" font-family="sans-serif" font-size="14" lengthAdjust="spacing" textLength="140" x="23.5" y="240.6357">string name : -- 名前</text><text fill="#000000" font-family="sans-serif" font-size="14" lengthAdjust="spacing" textLength="243" x="23.5" y="256.9326">timestamp updated_at : -- 更新日時</text></g><!--class i_user_profile--><g id="elem_i_user_profile"><rect codeLine="13" fill="#FFDAB9" height="154.0469" id="i_user_profile" rx="2.5" ry="2.5" style="stroke:#000000;stroke-width:0.5;" width="268" x="11" y="324.4844"/><ellipse cx="26" cy="344.6172" fill="#FFE0E0" rx="11" ry="11" style="stroke:#181818;stroke-width:1.0;"/><path d="M21.9219,340.3828 L21.9219,338.2266 L29.3125,338.2266 L29.3125,340.3828 L26.8438,340.3828 L26.8438,348.4609 L29.3125,348.4609 L29.3125,350.6172 L21.9219,350.6172 L21.9219,348.4609 L24.3906,348.4609 L24.3906,340.3828 L21.9219,340.3828 Z " fill="#000000"/><text fill="#000000" font-family="sans-serif" font-size="12" font-style="italic" lengthAdjust="spacing" textLength="158" x="38" y="340.623">«ユーザープロフィール情報»</text><text fill="#000000" font-family="sans-serif" font-size="14" lengthAdjust="spacing" textLength="95" x="69.5" y="356.4482">i_user_profile</text><rect fill="#FFFFFF" height="15.9688" style="stroke:#000000;stroke-width:1.0;stroke-dasharray:2.0,2.0;" width="80" x="202" y="321.4844"/><text fill="#000000" font-family="sans-serif" font-size="12" font-style="italic" lengthAdjust="spacing" textLength="78" x="203" y="333.623">user グループ</text><line style="stroke:#000000;stroke-width:0.5;" x1="12" x2="278" y1="364.75" y2="364.75"/><ellipse cx="22" cy="378.3984" fill="none" rx="3" ry="3" style="stroke:#038048;stroke-width:1.0;"/><text fill="#000000" font-family="sans-serif" font-size="14" lengthAdjust="spacing" textLength="236" x="31" y="381.7451">string profile_id : -- プロフィールID</text><line style="stroke:#000000;stroke-width:1.0;" x1="12" x2="278" y1="389.0469" y2="389.0469"/><text fill="#000000" font-family="sans-serif" font-size="14" lengthAdjust="spacing" textLength="149" x="17" y="406.042">string bio : -- 自己紹介</text><text fill="#000000" font-family="sans-serif" font-size="14" lengthAdjust="spacing" textLength="239" x="17" y="422.3389">timestamp created_at : -- 生成日時</text><text fill="#000000" font-family="sans-serif" font-size="14" lengthAdjust="spacing" textLength="243" x="17" y="438.6357">timestamp updated_at : -- 更新日時</text><text fill="#000000" font-family="sans-serif" font-size="14" lengthAdjust="spacing" textLength="193" x="17" y="454.9326">string user_id : -- ユーザーID</text><text fill="#000000" font-family="sans-serif" font-size="14" lengthAdjust="spacing" textLength="237" x="17" y="471.2295">string website : -- ウェブサイトURL</text></g><!--link i_user to i_user_profile--><g id="link_i_user_i_user_profile"><path codeLine="23" d="M145,271.9173 C145,286.6259 145,302.1103 145,317.0552 " fill="none" id="i_user-i_user_profile" style="stroke:#000000;stroke-width:1.0;"/><line style="stroke:#000000;stroke-width:1.0;" x1="141" x2="149" y1="268.6525" y2="268.6525"/><line style="stroke:#000000;stroke-width:1.0;" x1="141" x2="149" y1="271.6525" y2="271.6525"/><line style="stroke:#000000;stroke-width:1.0;" x1="145" x2="145" y1="272.6525" y2="264.6525"/><line style="stroke:#000000;stroke-width:1.0;" x1="149" x2="141" y1="320.3427" y2="320.3427"/><line style="stroke:#000000;stroke-width:1.0;" x1="149" x2="141" y1="317.3427" y2="317.3427"/><line style="stroke:#000000;stroke-width:1.0;" x1="145" x2="145" y1="316.3427" y2="324.3427"/><text fill="#000000" font-family="sans-serif" font-size="13" lengthAdjust="spacing" textLength="47" x="95.6867" y="284.2852">user_id</text><text fill="#000000" font-family="sans-serif" font-size="13" lengthAdjust="spacing" textLength="47" x="95.7602" y="313.3463">user_id</text></g></g></svg>